<svg xmlns="http://www.w3.org/2000/svg" xmlns:xlink="http://www.w3.org/1999/xlink" width="1920" zoomAndPan="magnify" viewBox="0 0 1440 809.999993" height="1080" preserveAspectRatio="xMidYMid meet" version="1.0"><defs><clipPath id="e3cbe684e8"><path d="M 429.691406 415.679688 L 748.878906 415.679688 L 748.878906 695.167969 L 429.691406 695.167969 Z M 429.691406 415.679688 " clip-rule="nonzero"/></clipPath><clipPath id="4812d417a0"><path d="M 887.363281 115.023438 L 1120.484375 115.023438 L 1120.484375 452.839844 L 887.363281 452.839844 Z M 887.363281 115.023438 " clip-rule="nonzero"/></clipPath></defs><path fill="#000000" d="M 617.535156 195.691406 C 586.746094 195.691406 577.28125 196.515625 572.472656 197.242188 C 564.375 198.457031 557.371094 203.507812 553.65625 210.808594 L 455.710938 403.359375 C 451.074219 412.472656 452.367188 423.472656 458.988281 431.261719 C 465.390625 438.792969 467.089844 440.640625 468.953125 442.597656 C 469.929688 443.628906 471.035156 444.796875 476.839844 451.625 C 477.203125 452.046875 477.582031 452.460938 477.96875 452.863281 C 478.398438 453.308594 478.800781 453.714844 479.214844 454.152344 C 479.890625 452.992188 480.609375 451.863281 481.398438 450.792969 C 482.582031 449.210938 484.070312 447.777344 485.726562 446.496094 C 485.851562 446.199219 485.964844 445.898438 486.105469 445.601562 C 487.351562 443.582031 488.597656 441.554688 489.84375 439.539062 C 491.488281 437.523438 493.355469 435.804688 495.40625 434.351562 C 483.886719 420.824219 490.832031 429.601562 478.285156 414.847656 L 576.238281 222.292969 C 582.578125 221.34375 598.765625 221.027344 617.535156 221.027344 C 622.777344 221.027344 628.234375 221.054688 633.722656 221.09375 C 635.136719 219.523438 636.699219 218.105469 638.382812 216.898438 C 640.320312 207.929688 647.015625 199.304688 655.492188 196 C 643.046875 195.824219 629.726562 195.691406 617.535156 195.691406 " fill-opacity="1" fill-rule="nonzero"/><path fill="#000000" d="M 1024.335938 492.472656 C 1022.277344 474.0625 1011.195312 463.058594 1003.035156 456.382812 C 997.0625 451.484375 991.265625 446.367188 985.121094 440.9375 C 982.3125 438.457031 979.503906 435.972656 976.679688 433.511719 C 972.101562 429.527344 967.515625 425.550781 962.929688 421.570312 C 954.683594 414.414062 946.445312 407.253906 938.226562 400.070312 C 932.933594 395.441406 927.671875 390.792969 922.398438 386.148438 C 916.726562 381.132812 910.855469 375.945312 905.023438 370.859375 C 900.984375 367.335938 896.902344 363.851562 892.949219 360.488281 C 889.539062 357.585938 886.015625 354.582031 882.625 351.632812 C 872.699219 343.015625 862.617188 334.195312 852.875 325.664062 L 846.984375 320.511719 C 837.015625 311.792969 827.054688 303.058594 817.09375 294.316406 C 815.039062 292.515625 801.839844 280.222656 784.648438 264.152344 C 783.769531 265.082031 782.847656 265.945312 781.890625 266.71875 C 772.140625 274.554688 760.285156 273.066406 750.800781 267.171875 C 773.890625 288.789062 797.28125 310.640625 800.386719 313.363281 C 810.355469 322.113281 820.324219 330.855469 830.304688 339.585938 C 842.199219 349.988281 854.085938 360.402344 866.023438 370.765625 C 873.429688 377.199219 880.96875 383.496094 888.367188 389.945312 C 899.460938 399.640625 910.457031 409.445312 921.546875 419.144531 C 934.351562 430.339844 947.21875 441.464844 960.046875 452.628906 C 969.011719 460.433594 977.800781 468.457031 986.988281 475.984375 C 993.304688 481.15625 998.210938 486.796875 999.160156 495.289062 C 999.800781 500.996094 999.894531 506.585938 996.660156 511.519531 C 993.367188 516.542969 989.265625 520.816406 984.292969 524.375 C 980.140625 527.347656 974.046875 528.898438 967.898438 528.898438 C 961.480469 528.898438 954.996094 527.210938 950.566406 523.667969 C 941.703125 516.566406 932.203125 510.261719 922.945312 503.664062 C 909.441406 494.035156 895.886719 484.480469 882.390625 474.847656 C 866.636719 463.601562 850.929688 452.296875 835.1875 441.027344 C 824.414062 433.316406 813.570312 425.703125 802.867188 417.875 C 798.660156 414.796875 794.292969 412.628906 789.015625 411.945312 C 788.363281 411.867188 787.714844 411.824219 787.082031 411.824219 C 779.46875 411.824219 773.617188 417.765625 774.375 425.628906 C 774.957031 431.582031 777.972656 436.191406 782.675781 439.609375 C 794.511719 448.214844 806.453125 456.679688 818.367188 465.183594 C 828.425781 472.363281 838.546875 479.472656 848.578125 486.6875 C 863.726562 497.578125 878.792969 508.578125 893.945312 519.464844 C 905.417969 527.699219 916.921875 535.898438 928.5 543.984375 C 939.730469 551.8125 940.699219 563.558594 935.875 573.738281 C 931.507812 582.964844 923.863281 587.265625 915.695312 587.265625 C 911.070312 587.265625 906.28125 585.886719 901.835938 583.238281 C 888.550781 575.324219 876.425781 565.464844 863.773438 556.484375 C 847.472656 544.914062 831.128906 533.386719 814.835938 521.792969 C 799.578125 510.941406 784.296875 500.105469 769.164062 489.085938 C 765.617188 486.5 762.007812 485.0625 757.785156 485.0625 C 757.210938 485.0625 756.625 485.089844 756.019531 485.148438 C 749.460938 485.742188 745.839844 488.289062 744.011719 494.214844 C 742.164062 500.199219 743.996094 506.167969 748.878906 509.71875 C 772.839844 527.132812 796.804688 544.53125 820.78125 561.921875 C 835.648438 572.703125 850.597656 583.367188 865.355469 594.285156 C 870.15625 597.839844 872.445312 603.09375 872.828125 609.066406 C 873.25 615.789062 870.8125 621.601562 866.679688 626.714844 C 861.71875 632.84375 855.441406 636.078125 848.816406 636.078125 C 844.6875 636.078125 840.425781 634.824219 836.261719 632.222656 C 829.777344 628.171875 823.636719 623.558594 817.382812 619.144531 C 810.726562 614.449219 804.164062 609.613281 797.480469 604.949219 C 787.820312 598.203125 778.042969 591.632812 768.398438 584.871094 C 755.207031 575.621094 742.125 566.210938 728.917969 556.972656 C 726.121094 555.015625 723.46875 554.050781 720.929688 554.050781 C 717.578125 554.050781 714.425781 555.746094 711.414062 559.085938 C 706.242188 564.839844 706.328125 573.222656 711.804688 577.53125 C 718.507812 582.8125 725.328125 587.9375 732.15625 593.058594 C 748.898438 605.605469 765.683594 618.105469 782.417969 630.652344 C 785.671875 633.09375 786.164062 635.503906 784.484375 639.25 C 779.804688 649.722656 770.617188 654.742188 760.683594 654.742188 C 757.832031 654.742188 754.910156 654.328125 752.019531 653.5 C 746.035156 651.804688 740.691406 647.878906 735.046875 645.003906 C 734.761719 644.859375 733.078125 643.566406 730.480469 641.527344 C 730.519531 641.757812 730.574219 641.976562 730.613281 642.210938 C 731.722656 649.5625 728.84375 656.875 724.558594 662.667969 C 723.601562 663.945312 722.4375 665.128906 721.160156 666.210938 C 722.109375 666.84375 722.714844 667.152344 723.535156 667.574219 C 724.75 668.1875 726.1875 669.019531 727.714844 669.902344 C 732.296875 672.554688 737.996094 675.855469 745.101562 677.882812 C 750.238281 679.339844 755.484375 680.078125 760.683594 680.078125 C 781.21875 680.078125 799.203125 668.398438 807.605469 649.601562 C 808.351562 647.941406 808.957031 646.277344 809.441406 644.609375 C 813.695312 647.648438 818.09375 650.75 822.851562 653.710938 C 830.914062 658.753906 839.898438 661.414062 848.816406 661.414062 C 863.25 661.414062 876.582031 654.75 886.375 642.648438 C 894.402344 632.726562 898.464844 621.285156 898.195312 609.445312 C 903.882812 611.527344 909.804688 612.601562 915.695312 612.601562 C 934.359375 612.601562 950.46875 602.128906 958.773438 584.585938 C 963.578125 574.433594 964.957031 563.882812 963.203125 554.0625 C 964.75 554.183594 966.320312 554.234375 967.898438 554.234375 C 979.632812 554.234375 990.691406 550.949219 999.042969 544.972656 C 1006.523438 539.621094 1012.851562 533.035156 1017.84375 525.410156 C 1025.550781 513.644531 1025.363281 501.628906 1024.335938 492.472656 " fill-opacity="1" fill-rule="nonzero"/><path fill="#000000" d="M 759.882812 160.054688 C 746.585938 160.054688 733.4375 161.863281 720.367188 164.554688 C 702.582031 168.21875 685.878906 171.148438 670.265625 180.417969 C 668.648438 181.367188 630.28125 198.648438 605.957031 225.808594 C 600.496094 235.46875 595.105469 245.167969 589.808594 254.914062 C 588.929688 256.515625 588.328125 258.402344 588.132812 260.21875 C 587.023438 270.367188 586.171875 280.539062 585.039062 290.679688 C 584.046875 299.554688 583.710938 308.648438 581.417969 317.191406 C 578.835938 326.792969 574.582031 335.976562 570.667969 345.179688 C 568.082031 351.269531 568.050781 357.097656 571.328125 362.699219 C 577.410156 373.070312 586.824219 378.65625 598.59375 379.871094 C 601.8125 380.203125 605.039062 380.375 608.257812 380.375 C 616.828125 380.375 625.324219 379.160156 633.53125 376.515625 C 644.339844 373.035156 653.644531 366.617188 661.878906 358.792969 C 670.269531 350.816406 677.21875 341.730469 682.441406 331.378906 C 686.472656 323.386719 689.355469 315.046875 690.839844 306.152344 C 691.683594 301.121094 691.882812 295.734375 695.535156 291.519531 C 697.019531 289.816406 698.273438 287.917969 699.765625 286.214844 C 706.308594 278.726562 714.503906 273.382812 724.1875 271.898438 C 727.441406 271.394531 730.707031 271.144531 733.957031 271.144531 C 741.4375 271.144531 748.886719 272.472656 756.082031 275.167969 C 759.851562 276.582031 763.484375 278.125 766.363281 281.234375 C 771.222656 286.492188 776.191406 291.683594 781.414062 296.585938 C 787.570312 302.359375 794.042969 307.796875 800.386719 313.363281 C 810.355469 322.113281 820.324219 330.855469 830.304688 339.585938 C 842.199219 349.988281 854.085938 360.402344 866.023438 370.765625 C 873.429688 377.199219 880.96875 383.496094 888.367188 389.945312 C 899.460938 399.640625 910.457031 409.445312 921.546875 419.144531 C 934.351562 430.339844 947.21875 441.464844 960.046875 452.628906 C 969.011719 460.433594 977.800781 468.457031 986.988281 475.984375 C 987.214844 476.167969 987.472656 476.253906 987.769531 476.253906 C 990.96875 476.253906 998.304688 465.914062 1006.886719 453.695312 C 1013.890625 443.726562 1021.328125 430.003906 1026.183594 418.820312 C 1026.835938 417.328125 1026.90625 415.050781 1026.242188 413.601562 C 1020.898438 401.890625 1015.351562 390.277344 1009.796875 378.664062 C 1001.042969 360.335938 992.207031 342.054688 983.449219 323.730469 C 974.355469 304.707031 965.320312 285.660156 956.25 266.625 C 950.609375 254.789062 944.980469 242.9375 939.308594 231.113281 C 932.722656 217.417969 926.085938 203.742188 919.46875 190.0625 C 918.554688 188.144531 917.246094 187.359375 914.898438 187.199219 C 901.96875 186.300781 888.984375 185.609375 876.160156 183.828125 C 867.359375 182.601562 858.75 179.863281 850.128906 177.546875 C 837.984375 174.28125 825.945312 170.617188 813.785156 167.417969 C 797.671875 163.175781 781.238281 160.683594 764.585938 160.132812 C 763.015625 160.082031 761.445312 160.054688 759.882812 160.054688 Z M 759.882812 183.703125 C 761.203125 183.703125 762.523438 183.730469 763.808594 183.769531 C 778.375 184.242188 793.164062 186.441406 807.765625 190.289062 C 814.050781 191.9375 820.523438 193.785156 826.777344 195.570312 C 832.382812 197.167969 838.183594 198.816406 843.996094 200.382812 C 845.753906 200.855469 847.515625 201.34375 849.285156 201.839844 C 856.71875 203.917969 864.410156 206.0625 872.910156 207.25 C 883.054688 208.65625 893.109375 209.421875 902.898438 210.085938 L 903.808594 211.972656 C 908.546875 221.765625 913.28125 231.558594 917.992188 241.363281 C 922.386719 250.5 926.738281 259.65625 931.101562 268.808594 L 934.90625 276.800781 C 938.085938 283.476562 941.265625 290.160156 944.445312 296.835938 C 950.324219 309.207031 956.207031 321.574219 962.121094 333.929688 C 966.511719 343.128906 970.933594 352.320312 975.351562 361.515625 C 979.726562 370.628906 984.105469 379.738281 988.46875 388.859375 C 992.730469 397.773438 997.101562 406.921875 1001.382812 416.148438 C 997.207031 424.738281 992.097656 433.617188 987.539062 440.105469 C 986.851562 441.082031 986.085938 442.175781 985.273438 443.324219 C 984.851562 442.953125 984.429688 442.578125 984 442.203125 C 981.199219 439.722656 978.394531 437.246094 975.570312 434.792969 C 970.992188 430.808594 966.40625 426.828125 961.828125 422.84375 C 953.582031 415.6875 945.332031 408.527344 937.109375 401.335938 C 931.820312 396.710938 926.546875 392.058594 921.285156 387.40625 C 915.605469 382.398438 909.734375 377.21875 903.914062 372.132812 C 899.882812 368.617188 895.800781 365.140625 891.847656 361.773438 C 888.445312 358.863281 884.921875 355.863281 881.519531 352.914062 C 871.578125 344.277344 861.488281 335.449219 851.726562 326.910156 L 845.875 321.785156 C 835.898438 313.0625 825.9375 304.324219 815.976562 295.589844 C 814.144531 293.972656 812.296875 292.375 810.457031 290.773438 C 805.929688 286.855469 801.660156 283.152344 797.585938 279.332031 C 792.445312 274.515625 787.472656 269.230469 783.710938 265.171875 C 776.765625 257.664062 768.398438 254.53125 764.382812 253.019531 C 754.605469 249.359375 744.367188 247.496094 733.957031 247.496094 C 729.523438 247.496094 725.039062 247.839844 720.613281 248.519531 C 706.027344 250.75 692.660156 258.410156 681.953125 270.664062 C 680.679688 272.121094 679.644531 273.480469 678.8125 274.574219 C 678.390625 275.128906 677.917969 275.75 677.683594 276.019531 C 670.074219 284.796875 668.652344 294.507812 667.816406 300.308594 C 667.722656 300.960938 667.632812 301.613281 667.519531 302.253906 C 666.476562 308.496094 664.453125 314.539062 661.332031 320.726562 C 657.5 328.328125 652.203125 335.367188 645.597656 341.644531 C 639.015625 347.898438 632.695312 351.941406 626.289062 354 C 620.679688 355.808594 614.613281 356.726562 608.257812 356.726562 C 605.890625 356.726562 603.457031 356.601562 601.007812 356.351562 C 597.019531 355.933594 594.753906 354.648438 593.140625 352.761719 C 593.523438 351.882812 593.898438 351.007812 594.273438 350.128906 C 597.894531 341.730469 601.636719 333.046875 604.25 323.328125 C 606.492188 314.988281 607.25 306.8125 607.917969 299.601562 C 608.121094 297.40625 608.3125 295.328125 608.535156 293.3125 C 609.148438 287.851562 609.675781 282.382812 610.191406 277.089844 C 610.589844 272.992188 610.996094 268.761719 611.4375 264.632812 C 615.859375 256.515625 620.484375 248.183594 625.214844 239.796875 C 637.535156 226.714844 656.621094 213.480469 679.300781 202.335938 C 680.59375 201.703125 681.378906 201.3125 682.328125 200.75 C 693.371094 194.191406 706.277344 191.558594 721.210938 188.519531 L 725.136719 187.714844 C 738.421875 184.976562 749.46875 183.703125 759.882812 183.703125 " fill-opacity="1" fill-rule="nonzero"/><g clip-path="url(#e3cbe684e8)"><path fill="#000000" d="M 694.308594 600.929688 C 694.304688 600.941406 694.304688 600.949219 694.296875 600.957031 C 694.304688 600.949219 694.304688 600.941406 694.308594 600.929688 Z M 684.308594 611.089844 C 684.300781 611.089844 684.300781 611.089844 684.296875 611.089844 C 684.300781 611.089844 684.300781 611.089844 684.308594 611.089844 Z M 651.277344 625.277344 C 651.753906 625.277344 652.226562 625.300781 652.710938 625.363281 C 656.6875 625.84375 660.152344 628.3125 661.90625 631.914062 C 663.71875 635.640625 663.503906 638.847656 663.421875 640.054688 C 663.355469 641.703125 663.226562 643.25 663.09375 644.734375 C 662.894531 647.027344 662.691406 649.398438 662.949219 650.785156 C 663.84375 655.554688 666.648438 659.867188 671.511719 663.972656 C 678.234375 669.648438 684.210938 671.941406 690.917969 671.453125 C 692.9375 671.304688 694.574219 670.558594 696.402344 668.960938 C 703.082031 663.101562 720.507812 642.167969 723.816406 636.011719 C 724.695312 634.378906 725.546875 631.960938 724.339844 627.671875 C 721.765625 618.546875 715.914062 612.265625 706.460938 608.476562 C 698.109375 605.140625 694.09375 606.75 691.269531 608.773438 C 688.207031 610.957031 685.105469 611.082031 684.050781 611.117188 C 680.582031 611.425781 677.136719 610.191406 674.65625 607.730469 C 672.117188 605.210938 670.859375 601.667969 671.226562 598.105469 L 671.242188 597.847656 C 671.285156 596.726562 671.371094 594.636719 672.308594 592.265625 C 674.136719 587.640625 675.351562 580.96875 668.457031 570.519531 C 663.035156 562.296875 655.703125 557.265625 646.046875 555.132812 C 639.378906 553.660156 634.191406 554.453125 629.230469 557.710938 C 628.472656 558.214844 627.679688 558.683594 626.644531 559.296875 L 625.195312 560.152344 C 620.886719 562.734375 615.417969 562.3125 611.558594 559.097656 C 607.699219 555.886719 606.285156 550.585938 608.042969 545.882812 C 613.304688 531.75 610.265625 520.863281 598.1875 510.597656 C 585.949219 500.191406 574.726562 498.867188 561.796875 506.289062 C 557.074219 509.007812 551.101562 508.136719 547.34375 504.183594 C 543.589844 500.238281 543.023438 494.226562 545.972656 489.640625 C 555.742188 474.441406 554.660156 461.8125 542.558594 449.882812 C 530.574219 438.074219 518.203125 436.332031 503.738281 444.464844 C 489.375 460.710938 485.128906 465.804688 483.28125 468.015625 L 482.449219 469.011719 C 479.957031 471.960938 477.507812 474.941406 475.058594 477.929688 C 470.929688 482.964844 466.664062 488.171875 462.167969 493.199219 C 456.5625 499.460938 453.898438 504.929688 453.527344 510.921875 C 452.949219 520.421875 455.976562 528.398438 462.785156 535.300781 C 468.316406 540.914062 474.960938 544.152344 483.101562 545.214844 C 489 545.996094 494.375 544.878906 499.535156 541.839844 C 500.695312 541.152344 501.949219 540.234375 503.546875 539.066406 C 504.46875 538.394531 505.445312 537.679688 506.515625 536.929688 C 510.558594 534.09375 515.941406 534.058594 520.011719 536.863281 C 524.082031 539.667969 525.980469 544.703125 524.773438 549.5 C 524.683594 549.839844 524.628906 550.132812 524.578125 550.371094 C 524.367188 551.367188 524.050781 552.863281 523.21875 554.558594 C 520.746094 559.632812 520.691406 565.015625 523.066406 571.015625 C 527.769531 582.921875 535.9375 590.371094 548.015625 593.777344 C 557.015625 596.316406 563.671875 595.28125 569.601562 590.433594 C 570.4375 589.738281 571.183594 589.246094 571.96875 588.714844 C 572.300781 588.492188 572.695312 588.226562 573.175781 587.898438 C 577.113281 585.171875 582.308594 585.09375 586.324219 587.699219 C 590.347656 590.304688 592.394531 595.078125 591.523438 599.789062 C 591.417969 600.320312 591.359375 600.777344 591.296875 601.179688 C 591.09375 602.558594 590.84375 604.273438 590.039062 606.253906 C 588.660156 609.652344 588.921875 613.445312 590.980469 619.785156 C 594.464844 630.515625 607.539062 642.132812 621.445312 642.34375 C 628.96875 642.410156 633.84375 640.234375 637.742188 634.921875 C 638.863281 633.390625 640.023438 632.050781 641.046875 630.871094 C 641.441406 630.414062 641.824219 629.964844 642.207031 629.511719 C 644.46875 626.804688 647.800781 625.277344 651.277344 625.277344 Z M 689.089844 695.167969 C 677.472656 695.167969 666.703125 690.851562 656.265625 682.039062 C 649.234375 676.105469 644.304688 669.328125 641.554688 661.835938 C 635.5625 664.710938 628.714844 666.117188 621.097656 665.984375 C 598.574219 665.65625 575.464844 648.566406 568.492188 627.089844 C 567.582031 624.292969 566.707031 621.164062 566.144531 617.800781 C 558.589844 619.429688 550.382812 619.015625 541.605469 616.539062 C 522.484375 611.144531 508.472656 598.410156 501.078125 579.710938 C 499.503906 575.726562 498.472656 571.726562 497.996094 567.761719 C 492.21875 569.167969 486.214844 569.46875 480.042969 568.664062 C 466.667969 566.917969 455.195312 561.28125 445.953125 551.90625 C 434.484375 540.273438 428.941406 525.601562 429.929688 509.46875 C 430.625 498.125 435.40625 487.644531 444.550781 477.429688 C 448.707031 472.777344 452.625 468 456.78125 462.933594 C 459.308594 459.851562 461.832031 456.769531 464.40625 453.730469 L 465.125 452.863281 C 467.257812 450.316406 471.683594 445.007812 487.285156 427.378906 C 488.082031 426.480469 489.007812 425.707031 490.027344 425.085938 C 514.457031 410.347656 539.011719 413.179688 559.15625 433.042969 C 572.457031 446.160156 577.980469 461.765625 575.53125 477.949219 C 588.613281 477.402344 601.429688 482.316406 613.496094 492.578125 C 626.546875 503.667969 633.484375 516.757812 634.132812 531.183594 C 639.542969 530.445312 645.230469 530.726562 651.152344 532.039062 C 666.878906 535.515625 679.339844 544.082031 688.1875 557.496094 C 693.796875 565.988281 696.835938 574.484375 697.3125 582.890625 C 702.953125 582.804688 708.953125 584.003906 715.253906 586.527344 C 731.515625 593.039062 742.527344 605.046875 747.09375 621.257812 C 749.71875 630.558594 748.894531 639.296875 744.644531 647.207031 C 739.25 657.242188 719.515625 680.144531 711.96875 686.75 C 706.304688 691.714844 699.8125 694.5 692.671875 695.035156 C 691.472656 695.128906 690.277344 695.167969 689.089844 695.167969 " fill-opacity="1" fill-rule="nonzero"/></g><path fill="#000000" d="M 513.746094 558.417969 C 511.078125 558.417969 508.394531 557.519531 506.183594 555.679688 C 501.171875 551.496094 500.492188 544.042969 504.667969 539.027344 L 546.886719 488.355469 C 551.070312 483.339844 558.523438 482.660156 563.539062 486.84375 C 568.550781 491.019531 569.230469 498.476562 565.054688 503.492188 L 522.835938 554.164062 C 520.492188 556.972656 517.136719 558.417969 513.746094 558.417969 " fill-opacity="1" fill-rule="nonzero"/><path fill="#000000" d="M 579.609375 609.089844 C 577.015625 609.089844 574.410156 608.246094 572.226562 606.503906 C 567.132812 602.421875 566.300781 594.976562 570.386719 589.882812 L 610.917969 539.210938 C 614.996094 534.113281 622.4375 533.289062 627.527344 537.363281 C 632.628906 541.441406 633.460938 548.882812 629.375 553.984375 L 588.84375 604.65625 C 586.507812 607.574219 583.070312 609.089844 579.609375 609.089844 " fill-opacity="1" fill-rule="nonzero"/><path fill="#000000" d="M 648.851562 651.316406 C 646.277344 651.316406 643.691406 650.484375 641.519531 648.765625 C 636.402344 644.714844 635.539062 637.277344 639.589844 632.15625 L 671.675781 591.621094 C 675.726562 586.5 683.167969 585.636719 688.28125 589.6875 C 693.398438 593.742188 694.261719 601.171875 690.214844 606.300781 L 658.125 646.835938 C 655.789062 649.78125 652.339844 651.316406 648.851562 651.316406 " fill-opacity="1" fill-rule="nonzero"/><path fill="#000000" d="M 510.566406 143.179688 C 507.984375 143.179688 507.175781 143.976562 506.058594 146.238281 C 501.726562 155.074219 497.101562 164.351562 491.921875 174.597656 C 482.878906 192.484375 473.808594 210.359375 464.710938 228.21875 C 462.003906 233.523438 459.273438 238.820312 456.550781 244.113281 C 453.09375 250.816406 449.636719 257.527344 446.230469 264.257812 C 444.179688 268.320312 442.1875 272.417969 440.195312 276.515625 C 438.257812 280.515625 436.316406 284.503906 434.316406 288.472656 C 428.53125 299.953125 422.59375 311.5625 416.847656 322.800781 L 414.171875 328.046875 C 411.695312 332.875 409.222656 337.699219 406.742188 342.519531 C 403.214844 349.371094 399.691406 356.226562 396.199219 363.101562 C 393.992188 367.453125 391.8125 371.824219 389.628906 376.195312 C 386.390625 382.703125 383.03125 389.425781 379.601562 396.023438 C 378.429688 398.300781 379.027344 401.640625 380.824219 402.765625 C 384.925781 405.351562 389.390625 407.621094 394.117188 410.023438 L 401.628906 413.863281 C 412.105469 419.230469 422.929688 424.777344 433.65625 429.878906 C 435.042969 430.539062 437.109375 430.925781 438.914062 430.847656 C 439.976562 430.808594 441.429688 430.75 443.625 426.261719 C 450.289062 412.625 457.222656 398.875 463.929688 385.574219 L 468.828125 375.847656 C 476.523438 360.554688 484.25 345.277344 492.007812 330.019531 C 497.074219 320.046875 502.152344 310.09375 507.238281 300.136719 C 513.757812 287.363281 520.277344 274.582031 526.765625 261.796875 C 531.007812 253.4375 535.203125 245.054688 539.398438 236.675781 C 542.792969 229.90625 546.183594 223.132812 549.597656 216.375 C 555.675781 204.339844 562.148438 191.554688 568.613281 179.082031 C 570.226562 175.949219 570.246094 171.917969 566.632812 169.957031 C 563.652344 168.34375 560.628906 166.832031 557.421875 165.226562 C 555.871094 164.449219 554.308594 163.671875 552.757812 162.886719 C 549.738281 161.34375 546.722656 159.792969 543.707031 158.246094 C 536.761719 154.671875 529.578125 150.984375 522.5 147.511719 C 521.292969 146.917969 520.097656 146.277344 518.910156 145.632812 C 517.035156 144.621094 514.207031 143.097656 513.289062 143.179688 L 512.40625 143.257812 L 511.515625 143.210938 C 511.171875 143.191406 510.855469 143.179688 510.566406 143.179688 Z M 438.46875 454.5 C 433.234375 454.5 427.976562 453.359375 423.511719 451.234375 C 412.46875 445.984375 401.476562 440.355469 390.851562 434.910156 L 383.402344 431.105469 C 378.410156 428.566406 373.25 425.9375 368.222656 422.773438 C 356.105469 415.144531 351.804688 398.253906 358.625 385.125 C 361.960938 378.699219 365.273438 372.058594 368.472656 365.648438 C 370.675781 361.21875 372.878906 356.800781 375.125 352.390625 C 378.625 345.484375 382.167969 338.59375 385.710938 331.699219 C 388.183594 326.898438 390.660156 322.09375 393.113281 317.277344 L 395.796875 312.03125 C 401.53125 300.828125 407.449219 289.242188 413.199219 277.828125 C 415.148438 273.96875 417.039062 270.074219 418.933594 266.183594 C 420.9375 262.058594 423.011719 257.789062 425.132812 253.582031 C 428.570312 246.796875 432.046875 240.042969 435.53125 233.285156 C 438.242188 228.019531 440.953125 222.753906 443.640625 217.484375 C 452.730469 199.644531 461.789062 181.789062 470.820312 163.929688 C 475.957031 153.761719 480.542969 144.570312 484.835938 135.816406 C 490.207031 124.882812 499.839844 119.140625 512.050781 119.5625 C 519.640625 119.160156 525.703125 122.421875 530.164062 124.835938 C 531.074219 125.332031 531.984375 125.824219 532.910156 126.273438 C 540.183594 129.851562 547.46875 133.589844 554.515625 137.214844 C 557.507812 138.75 560.496094 140.289062 563.5 141.8125 C 564.996094 142.578125 566.5 143.328125 568 144.082031 C 571.230469 145.699219 574.570312 147.367188 577.886719 149.164062 C 592.503906 157.078125 597.546875 174.617188 589.601562 189.957031 C 583.191406 202.339844 577.003906 214.5625 570.703125 227.039062 C 567.296875 233.773438 563.921875 240.523438 560.535156 247.273438 C 556.320312 255.6875 552.105469 264.097656 547.851562 272.492188 C 541.351562 285.304688 534.828125 298.097656 528.296875 310.890625 C 523.21875 320.832031 518.144531 330.785156 513.085938 340.738281 C 505.339844 355.96875 497.628906 371.214844 489.949219 386.476562 L 485.042969 396.222656 C 478.367188 409.449219 471.464844 423.132812 464.867188 436.648438 C 457.921875 450.859375 447.414062 454.191406 439.820312 454.476562 C 439.363281 454.496094 438.914062 454.5 438.46875 454.5 " fill-opacity="1" fill-rule="nonzero"/><g clip-path="url(#4812d417a0)"><path fill="#000000" d="M 967.878906 139.121094 C 960.476562 142.464844 952.96875 146.035156 945.707031 149.492188 L 939.394531 152.496094 C 936.589844 153.820312 933.796875 155.160156 931.007812 156.5 C 925.644531 159.074219 920.101562 161.738281 914.542969 164.277344 C 912.265625 165.3125 910.636719 169.226562 911.136719 170.691406 C 912.109375 173.527344 913.546875 176.496094 915.0625 179.644531 L 915.4375 180.410156 C 918.558594 186.863281 921.699219 193.300781 924.839844 199.742188 C 929.226562 208.722656 933.605469 217.703125 937.921875 226.714844 C 940.515625 232.125 943.046875 237.628906 945.496094 242.945312 C 947.746094 247.839844 949.996094 252.730469 952.308594 257.59375 C 955.402344 264.097656 958.558594 270.5625 961.710938 277.035156 C 964.652344 283.066406 967.589844 289.105469 970.484375 295.160156 C 974.191406 302.921875 977.859375 310.707031 981.527344 318.484375 C 984.59375 325.011719 987.667969 331.542969 990.769531 338.054688 C 997.433594 352.046875 1004.121094 366.023438 1010.804688 380.003906 L 1023.667969 406.902344 C 1026.808594 413.46875 1029.949219 420.035156 1033.074219 426.605469 C 1033.605469 427.574219 1036.210938 428.742188 1037.351562 428.523438 C 1043.148438 426.445312 1048.328125 424.355469 1053.085938 422.160156 C 1065.316406 416.496094 1075.367188 411.648438 1084.71875 406.917969 C 1088.511719 404.996094 1092.824219 402.660156 1096.097656 399.917969 C 1097.015625 399.152344 1097 396.929688 1096.511719 395.878906 C 1090.191406 382.414062 1083.667969 368.746094 1077.367188 355.527344 L 1072.167969 344.632812 C 1063.539062 326.519531 1054.910156 308.410156 1046.257812 290.3125 C 1042.679688 282.828125 1039.085938 275.359375 1035.492188 267.890625 C 1031.527344 259.644531 1027.566406 251.402344 1023.621094 243.148438 C 1017.640625 230.640625 1011.695312 218.109375 1005.75 205.582031 L 995.828125 184.691406 C 989.3125 170.980469 982.792969 157.265625 976.328125 143.519531 C 974.289062 139.199219 972.847656 138.683594 971.203125 138.660156 C 970.609375 138.75 970.003906 138.828125 969.402344 138.902344 C 968.894531 138.96875 968.226562 139.046875 967.878906 139.121094 Z M 1037.152344 452.179688 C 1026.863281 452.179688 1016.1875 446.121094 1011.734375 436.777344 C 1008.609375 430.222656 1005.472656 423.664062 1002.335938 417.105469 L 989.476562 390.210938 C 982.78125 376.21875 976.089844 362.222656 969.429688 348.214844 C 966.308594 341.675781 963.222656 335.117188 960.132812 328.558594 C 956.484375 320.820312 952.84375 313.082031 949.15625 305.355469 C 946.28125 299.359375 943.371094 293.375 940.453125 287.394531 C 937.273438 280.863281 934.089844 274.324219 930.960938 267.765625 C 928.601562 262.804688 926.304688 257.808594 924.007812 252.824219 C 921.601562 247.582031 919.121094 242.171875 916.601562 236.933594 C 912.3125 227.972656 907.953125 219.046875 903.589844 210.121094 C 900.4375 203.648438 897.285156 197.183594 894.152344 190.703125 L 893.789062 189.945312 C 892.019531 186.300781 890.199219 182.535156 888.761719 178.324219 C 884.242188 165.054688 891.550781 148.78125 904.726562 142.761719 C 910.070312 140.320312 915.511719 137.707031 920.769531 135.179688 C 923.601562 133.828125 926.429688 132.460938 929.265625 131.125 L 935.546875 128.140625 C 943.007812 124.589844 950.726562 120.917969 958.4375 117.433594 C 961.480469 116.058594 964.363281 115.703125 966.464844 115.441406 C 966.96875 115.375 967.46875 115.320312 967.957031 115.230469 L 968.875 115.058594 L 969.804688 115.03125 C 978.460938 114.773438 990.339844 117.78125 997.714844 133.445312 C 1004.175781 147.164062 1010.679688 160.855469 1017.183594 174.542969 L 1027.105469 195.441406 C 1033.042969 207.949219 1038.988281 220.460938 1044.949219 232.957031 C 1048.890625 241.191406 1052.839844 249.417969 1056.796875 257.640625 C 1060.402344 265.128906 1064.003906 272.617188 1067.585938 280.105469 C 1076.246094 298.214844 1084.882812 316.335938 1093.515625 334.457031 L 1098.710938 345.34375 C 1105.027344 358.59375 1111.558594 372.296875 1117.914062 385.828125 C 1122.371094 395.332031 1121.527344 409.445312 1111.296875 418.035156 C 1106.183594 422.324219 1100.390625 425.484375 1095.398438 428.011719 C 1085.792969 432.875 1075.5 437.835938 1063.011719 443.613281 C 1057.609375 446.117188 1051.785156 448.476562 1045.195312 450.832031 C 1042.628906 451.75 1039.902344 452.179688 1037.152344 452.179688 " fill-opacity="1" fill-rule="nonzero"/></g></svg>