<svg xmlns="http://www.w3.org/2000/svg" xmlns:xlink="http://www.w3.org/1999/xlink" width="1920" zoomAndPan="magnify" viewBox="0 0 1440 809.999993" height="1080" preserveAspectRatio="xMidYMid meet" version="1.0"><defs><clipPath id="fae5f9edc4"><path d="M 143.894531 83 L 1330 83 L 1330 671 L 143.894531 671 Z M 143.894531 83 " clip-rule="nonzero"/></clipPath><clipPath id="4e30b6737c"><path d="M 605.917969 81 L 858 81 L 858 324.566406 L 605.917969 324.566406 Z M 605.917969 81 " clip-rule="nonzero"/></clipPath><clipPath id="e5c70223c6"><path d="M 731.640625 81 C 662.207031 81 605.917969 135.523438 605.917969 202.78125 C 605.917969 270.039062 662.207031 324.566406 731.640625 324.566406 C 801.078125 324.566406 857.367188 270.039062 857.367188 202.78125 C 857.367188 135.523438 801.078125 81 731.640625 81 Z M 731.640625 81 " clip-rule="nonzero"/></clipPath></defs><g clip-path="url(#fae5f9edc4)"><path fill="#000000" d="M 736.191406 83.535156 C 703.070312 83.511719 671.699219 98.570312 650.972656 124.449219 C 613.269531 171.566406 620.816406 240.359375 667.871094 278.140625 C 714.902344 315.921875 783.625 308.363281 821.359375 261.273438 C 859.0625 214.152344 851.515625 145.363281 804.460938 107.582031 C 804.242188 107.421875 804.027344 107.230469 803.839844 107.042969 C 784.542969 91.820312 760.71875 83.535156 736.191406 83.535156 Z M 733.875 101.78125 C 755.355469 101.238281 776.296875 108.3125 793.03125 121.75 C 793.03125 121.75 793.085938 121.777344 793.085938 121.777344 C 832.300781 153.269531 838.578125 210.617188 807.128906 249.882812 C 775.675781 289.148438 718.40625 295.4375 679.21875 263.945312 C 640.03125 232.449219 633.726562 175.101562 665.175781 135.863281 C 681.941406 114.949219 707.058594 102.453125 733.875 101.78125 Z M 733.550781 117.324219 C 729.210938 117.460938 724.902344 117.945312 720.640625 118.863281 C 703.691406 122.425781 688.058594 132.058594 677.226562 145.578125 C 666.390625 159.101562 660.433594 176.425781 660.648438 193.75 C 660.867188 211.078125 667.226562 228.292969 678.382812 241.546875 C 679.355469 242.707031 681.078125 242.839844 682.238281 241.867188 C 682.371094 241.761719 682.480469 241.625 682.589844 241.492188 L 771.957031 129.953125 C 772.898438 128.792969 772.738281 127.066406 771.578125 126.09375 C 771.5 126.042969 771.417969 125.988281 771.363281 125.933594 C 771.28125 125.878906 771.203125 125.824219 771.09375 125.769531 C 759.613281 119.78125 746.515625 116.890625 733.550781 117.324219 Z M 733.820312 135.675781 C 737.027344 135.785156 740.316406 136.214844 743.550781 136.78125 L 683.074219 212.265625 C 680.566406 206.136719 678.625 199.957031 678.546875 193.617188 C 678.382812 180.445312 682.992188 167.113281 691.238281 156.832031 C 699.484375 146.550781 711.453125 139.128906 724.363281 136.429688 C 727.433594 135.757812 730.613281 135.566406 733.820312 135.675781 Z M 792.035156 143.203125 C 791.144531 143.152344 790.308594 143.527344 789.71875 144.203125 L 700.347656 255.792969 C 699.40625 256.980469 699.621094 258.707031 700.808594 259.652344 C 700.914062 259.761719 701.050781 259.84375 701.210938 259.921875 C 716.574219 267.9375 734.738281 270.5 751.691406 266.941406 C 768.640625 263.378906 784.273438 253.742188 795.105469 240.222656 C 805.941406 226.703125 811.898438 209.324219 811.683594 191.996094 C 811.464844 174.671875 805.105469 157.453125 793.949219 144.203125 C 793.785156 144.015625 793.625 143.851562 793.410156 143.71875 C 792.976562 143.394531 792.492188 143.230469 792.035156 143.203125 Z M 789.230469 173.511719 C 791.765625 179.636719 793.679688 185.816406 793.761719 192.160156 C 793.921875 205.328125 789.3125 218.660156 781.066406 228.941406 C 772.820312 239.222656 760.851562 246.589844 747.945312 249.289062 C 741.746094 250.585938 735.25 250.101562 728.726562 248.964844 Z M 608.3125 287.316406 C 595.242188 287.207031 581.550781 294.0625 565.675781 303.34375 C 549.746094 312.65625 532.285156 324.53125 513.929688 331.277344 C 495.578125 338.023438 474.691406 340.316406 457.441406 341.828125 C 440.191406 343.339844 425.613281 344.121094 408.6875 351.625 C 391.789062 359.101562 373.8125 372.402344 363.003906 379.152344 C 357.589844 382.523438 354.867188 383.738281 352.007812 384.117188 C 349.179688 384.441406 344.921875 383.875 336.945312 381.363281 C 334.949219 380.742188 332.039062 379.582031 329.640625 378.71875 L 330.125 377.234375 C 330.152344 377.207031 330.179688 377.179688 330.179688 377.125 C 331.445312 370.351562 327.78125 363.417969 321.015625 361.203125 L 279.539062 347.710938 C 274.527344 346.066406 269.40625 347.601562 265.847656 350.921875 L 209.898438 325.148438 C 205.398438 323.070312 200.113281 325.203125 198.066406 329.683594 C 195.992188 334.191406 198.066406 339.480469 202.539062 341.53125 L 258.4375 367.304688 L 252.535156 385.4375 L 192.621094 369.355469 C 187.824219 368.058594 182.757812 370.867188 181.464844 375.667969 C 180.171875 380.472656 183.109375 385.410156 187.824219 386.679688 L 246.929688 402.496094 L 215.019531 500.429688 L 154.703125 488.3125 C 149.824219 487.3125 145 490.472656 144.03125 495.328125 C 143.03125 500.214844 146.238281 504.9375 151.089844 505.933594 L 212.160156 518.375 C 213.402344 522.585938 216.367188 526.285156 220.894531 527.769531 L 262.480469 541.316406 C 269.351562 543.582031 276.519531 539.992188 279.378906 533.460938 C 281.855469 534.515625 284.902344 535.675781 286.894531 536.671875 C 302.664062 544.472656 304.332031 548.492188 309.320312 556.535156 C 314.25 564.496094 320.476562 574.535156 330.636719 584.0625 C 340.769531 593.5625 353.976562 601.980469 365.269531 607.136719 C 376.5625 612.289062 385.023438 613.613281 397.691406 617.257812 C 402.164062 618.523438 407.984375 620.414062 413.699219 622.277344 L 413.753906 622.328125 L 501.183594 651.851562 L 551.875 668.988281 C 570.285156 675.171875 590.199219 665.320312 596.398438 646.914062 C 598.3125 641.167969 598.230469 635.363281 597.234375 629.832031 L 614.078125 636.253906 C 632.21875 643.164062 652.484375 634.042969 659.410156 615.851562 C 661.59375 610.160156 661.621094 604.300781 660.839844 598.714844 L 680.378906 606.945312 C 698.273438 614.476562 718.835938 606.109375 726.382812 588.191406 L 726.4375 588.136719 C 733.929688 570.300781 725.601562 549.816406 707.867188 542.179688 C 712.691406 538.589844 716.921875 534.136719 719.457031 528.144531 C 726.976562 510.226562 718.621094 489.609375 700.726562 482.078125 L 617.339844 446.914062 L 583.4375 432.585938 C 576.832031 429.699219 569.476562 426.296875 563.007812 423.515625 C 556.753906 420.65625 550.933594 417.878906 545.113281 414.125 C 542.011719 412.128906 538.996094 409.835938 537.269531 408 C 536.433594 407.109375 536.03125 406.625 535.734375 406.109375 C 535.976562 405.03125 536.109375 404.410156 537.324219 403.304688 C 539.316406 401.523438 543.089844 399.257812 548.105469 397.230469 C 558.074219 393.292969 574.972656 390.132812 590.066406 380.742188 C 605.183594 371.324219 616.261719 356.804688 623.648438 344.3125 C 631.03125 331.84375 635.667969 320.238281 633.808594 308.796875 C 631.894531 297.082031 621.707031 287.421875 608.3125 287.316406 Z M 865.3125 287.316406 C 851.917969 287.421875 841.730469 297.082031 839.847656 308.824219 C 838.011719 320.265625 842.648438 331.871094 850.007812 344.339844 C 857.390625 356.832031 868.496094 371.324219 883.585938 380.769531 C 898.707031 390.1875 915.605469 393.320312 925.550781 397.257812 C 930.5625 399.257812 934.335938 401.523438 936.328125 403.332031 C 937.542969 404.410156 937.648438 405.03125 937.917969 406.136719 C 937.648438 406.675781 937.246094 407.136719 936.382812 408.027344 C 934.660156 409.835938 931.640625 412.128906 928.539062 414.152344 C 922.71875 417.902344 916.898438 420.65625 910.644531 423.542969 C 904.175781 426.324219 896.820312 429.722656 890.21875 432.613281 L 856.3125 446.941406 L 772.925781 482.105469 C 755.03125 489.636719 746.648438 510.253906 754.195312 528.171875 C 756.730469 534.164062 760.960938 538.617188 765.785156 542.207031 C 748.050781 549.84375 739.695312 570.324219 747.214844 588.164062 L 747.269531 588.21875 C 754.789062 606.136719 775.378906 614.53125 793.273438 606.972656 L 812.8125 598.742188 C 812.03125 604.328125 812.058594 610.1875 814.242188 615.878906 C 821.140625 634.070312 841.410156 643.191406 859.574219 636.28125 L 876.417969 629.859375 C 875.421875 635.390625 875.339844 641.195312 877.253906 646.941406 C 883.453125 665.375 903.367188 675.222656 921.777344 669.015625 L 972.46875 651.878906 L 1059.898438 622.355469 L 1059.953125 622.304688 C 1065.667969 620.46875 1071.488281 618.550781 1075.960938 617.28125 C 1088.628906 613.640625 1097.0625 612.316406 1108.382812 607.164062 C 1119.703125 602.007812 1132.855469 593.5625 1143.015625 584.089844 C 1153.175781 574.5625 1159.375 564.523438 1164.332031 556.5625 C 1169.347656 548.492188 1170.964844 544.5 1186.757812 536.699219 C 1188.75 535.703125 1191.824219 534.542969 1194.277344 533.488281 C 1197.105469 540.019531 1204.273438 543.609375 1211.171875 541.34375 L 1252.757812 527.792969 C 1257.285156 526.308594 1260.222656 522.640625 1261.492188 518.402344 L 1322.5625 505.960938 C 1327.414062 504.992188 1330.621094 500.242188 1329.621094 495.355469 C 1328.652344 490.5 1323.800781 487.339844 1318.949219 488.339844 L 1258.632812 500.457031 L 1226.722656 402.523438 L 1285.828125 386.707031 C 1290.570312 385.4375 1293.507812 380.5 1292.1875 375.695312 C 1290.894531 370.894531 1285.828125 368.058594 1281.03125 369.382812 L 1221.117188 385.464844 L 1215.214844 367.332031 L 1271.113281 341.558594 C 1275.585938 339.507812 1277.632812 334.21875 1275.585938 329.710938 C 1273.539062 325.230469 1268.253906 323.097656 1263.753906 325.175781 L 1207.804688 350.949219 C 1204.246094 347.601562 1199.125 346.09375 1194.113281 347.738281 L 1152.636719 361.230469 C 1145.898438 363.445312 1142.207031 370.351562 1143.472656 377.152344 C 1143.472656 377.179688 1143.5 377.234375 1143.527344 377.261719 L 1144.011719 378.746094 C 1141.585938 379.609375 1138.703125 380.769531 1136.707031 381.390625 C 1128.730469 383.902344 1124.5 384.46875 1121.644531 384.144531 C 1118.785156 383.792969 1116.0625 382.578125 1110.648438 379.179688 C 1099.867188 372.429688 1081.863281 359.125 1064.964844 351.652344 C 1048.039062 344.148438 1033.488281 343.339844 1016.210938 341.855469 C 998.9375 340.371094 978.101562 338.078125 959.722656 331.304688 C 941.34375 324.53125 923.90625 312.683594 907.976562 303.371094 C 892.050781 294.0625 878.386719 287.207031 865.3125 287.316406 Z M 608.175781 305.234375 C 611.195312 305.261719 612.8125 305.960938 613.917969 306.960938 C 615.023438 307.933594 615.777344 309.496094 616.128906 311.820312 C 616.800781 315.921875 614.671875 324.285156 608.230469 335.164062 C 601.789062 346.066406 591.871094 358.585938 580.660156 365.578125 C 569.449219 372.566406 554.410156 375.507812 541.609375 380.609375 C 535.195312 383.171875 529.695312 386.222656 525.382812 390.109375 C 521.070312 393.992188 517.433594 399.230469 517.433594 405.652344 C 517.433594 405.839844 517.542969 405.976562 517.59375 406.136719 C 516.21875 405.679688 514.792969 405.246094 513.5 404.871094 C 498.433594 400.847656 487.519531 400.957031 478.328125 401.875 C 478.085938 401.875 477.816406 401.875 477.546875 401.929688 C 474.097656 402.304688 471.160156 404.625 470.027344 407.890625 C 468.410156 412.585938 470.890625 417.632812 475.550781 419.28125 C 476.710938 419.683594 478.058594 419.847656 479.296875 419.765625 C 487.546875 418.875 495.578125 418.714844 508.945312 422.304688 C 516.058594 424.191406 525.113281 427.511719 534.953125 431.425781 L 535.003906 431.425781 L 564.4375 443.867188 L 564.488281 443.867188 C 568.207031 445.457031 571.578125 446.914062 575.214844 448.507812 C 575.351562 448.5625 575.511719 448.507812 575.699219 448.5625 L 575.753906 448.613281 L 608.660156 462.488281 L 693.988281 498.488281 C 703.230469 502.398438 707.246094 512.222656 703.367188 521.480469 C 699.703125 530.167969 690.835938 534.027344 682.101562 531.277344 L 591.277344 492.980469 L 543.441406 472.796875 C 543.144531 472.6875 542.875 472.527344 542.550781 472.472656 C 537.890625 470.851562 532.847656 473.335938 531.230469 478.003906 C 529.613281 482.671875 532.09375 487.71875 536.757812 489.339844 C 536.785156 489.339844 536.785156 489.367188 536.863281 489.390625 L 582.386719 508.578125 L 673.453125 547.007812 C 674.394531 547.414062 674.960938 547.46875 675.230469 547.550781 L 675.285156 547.550781 L 700.808594 558.34375 L 700.859375 558.34375 C 710.105469 562.257812 714.066406 572.082031 710.183594 581.335938 C 706.304688 590.59375 696.46875 594.558594 687.222656 590.675781 L 637.851562 569.894531 C 637.605469 569.785156 637.363281 569.679688 637.121094 569.679688 L 563.574219 541.691406 L 513.472656 522.558594 C 513.09375 522.398438 512.664062 522.207031 512.257812 522.019531 C 507.625 520.398438 502.609375 522.910156 500.992188 527.550781 C 499.375 532.195312 501.828125 537.214844 506.464844 538.832031 C 506.707031 538.941406 506.949219 538.96875 507.191406 539.046875 L 554.839844 557.183594 L 632.863281 586.921875 C 642.242188 590.511719 646.527344 600.144531 642.96875 609.539062 C 639.414062 618.929688 629.765625 623.300781 620.386719 619.710938 L 573.492188 601.847656 L 536.59375 589.40625 L 485.441406 572.214844 C 480.914062 570.894531 476.144531 573.320312 474.609375 577.800781 C 473.074219 582.253906 475.308594 587.140625 479.703125 588.867188 L 479.703125 588.921875 L 527.703125 605.113281 L 568.746094 619.039062 C 578.261719 622.222656 583.003906 631.722656 579.796875 641.21875 C 576.589844 650.773438 567.078125 655.496094 557.589844 652.285156 L 510.050781 636.199219 L 454.152344 617.335938 C 435.800781 611.074219 416.207031 603.871094 402.730469 599.984375 C 389.253906 596.125 381.925781 594.964844 372.679688 590.753906 C 363.4375 586.546875 351.121094 578.636719 342.898438 570.945312 C 334.652344 563.253906 329.558594 555.023438 324.628906 547.0625 C 319.640625 539.019531 313.066406 529.628906 294.875 520.617188 C 292.125 519.238281 288.351562 517.835938 285.0625 516.433594 L 324.117188 395.828125 C 326.59375 396.691406 329.480469 397.824219 331.632812 398.527344 C 340.527344 401.335938 347.347656 402.738281 354.164062 401.953125 C 360.984375 401.171875 366.5625 398.148438 372.601562 394.425781 C 384.621094 386.921875 402.058594 374.210938 415.910156 368.058594 C 429.789062 361.90625 441.484375 361.3125 459.03125 359.773438 C 476.550781 358.234375 499 355.96875 520.210938 348.171875 C 541.417969 340.371094 559.773438 327.632812 574.785156 318.863281 C 589.796875 310.117188 602.652344 305.207031 608.175781 305.234375 Z M 865.449219 305.234375 C 870.945312 305.207031 883.828125 310.117188 898.8125 318.890625 C 913.851562 327.660156 932.207031 340.398438 953.390625 348.195312 C 974.574219 355.996094 997.023438 358.261719 1014.566406 359.800781 C 1032.085938 361.3125 1043.78125 361.933594 1057.6875 368.085938 C 1071.542969 374.238281 1089.007812 386.921875 1101 394.453125 C 1107.035156 398.203125 1112.585938 401.199219 1119.433594 401.980469 C 1126.226562 402.765625 1133.070312 401.359375 1141.964844 398.554688 C 1144.121094 397.878906 1147.03125 396.746094 1149.484375 395.855469 L 1188.535156 516.460938 C 1185.246094 517.863281 1181.472656 519.265625 1178.75 520.617188 C 1160.558594 529.628906 1154.011719 539.046875 1149 547.0625 C 1144.039062 555.023438 1139 563.253906 1130.726562 570.945312 C 1122.480469 578.636719 1110.164062 586.546875 1100.945312 590.753906 C 1091.675781 594.964844 1084.371094 596.125 1070.894531 599.984375 C 1057.417969 603.871094 1037.824219 611.050781 1019.472656 617.335938 L 963.578125 636.199219 L 916.035156 652.285156 C 906.523438 655.496094 897.035156 650.746094 893.828125 641.21875 C 890.621094 631.695312 895.363281 622.222656 904.878906 619.039062 L 945.925781 605.113281 L 993.921875 588.921875 L 993.921875 588.867188 C 998.316406 587.140625 1000.554688 582.253906 999.015625 577.800781 C 997.480469 573.320312 992.710938 570.894531 988.183594 572.214844 L 937.03125 589.40625 L 900.132812 601.847656 L 853.238281 619.710938 C 843.859375 623.300781 834.238281 618.929688 830.65625 609.539062 C 827.070312 600.144531 831.382812 590.511719 840.761719 586.921875 L 918.785156 557.183594 L 966.433594 539.046875 C 966.703125 538.96875 966.917969 538.941406 967.160156 538.832031 C 971.796875 537.214844 974.25 532.195312 972.632812 527.550781 C 971.015625 522.910156 966.003906 520.398438 961.367188 522.019531 C 960.960938 522.207031 960.53125 522.398438 960.152344 522.558594 L 910.050781 541.691406 L 836.503906 569.679688 C 836.234375 569.679688 836.019531 569.785156 835.777344 569.894531 L 786.402344 590.675781 C 777.15625 594.585938 767.347656 590.59375 763.441406 581.335938 C 759.53125 572.082031 763.519531 562.257812 772.765625 558.34375 L 772.820312 558.34375 L 798.339844 547.550781 L 798.394531 547.550781 C 798.691406 547.46875 799.230469 547.414062 800.175781 547.007812 L 891.242188 508.578125 L 936.761719 489.390625 C 936.839844 489.367188 936.816406 489.339844 936.867188 489.339844 C 941.53125 487.71875 944.039062 482.671875 942.394531 478.003906 C 940.777344 473.335938 935.738281 470.851562 931.074219 472.472656 C 930.75 472.527344 930.480469 472.6875 930.183594 472.796875 L 882.347656 492.980469 L 791.605469 531.195312 C 782.871094 533.949219 774.003906 530.089844 770.339844 521.398438 C 766.433594 512.140625 770.472656 502.320312 779.71875 498.40625 L 865.042969 462.40625 L 897.953125 448.535156 L 898.003906 448.480469 C 898.195312 448.425781 898.355469 448.480469 898.492188 448.425781 C 902.128906 446.835938 905.523438 445.375 909.21875 443.785156 L 909.269531 443.785156 L 938.703125 431.34375 L 938.753906 431.34375 C 948.59375 427.429688 957.648438 424.109375 964.761719 422.222656 C 978.128906 418.632812 986.214844 418.792969 994.460938 419.683594 C 995.703125 419.792969 996.996094 419.605469 998.15625 419.199219 C 1002.84375 417.554688 1005.324219 412.507812 1003.679688 407.8125 C 1002.519531 404.546875 999.609375 402.226562 996.160156 401.847656 C 995.890625 401.792969 995.59375 401.792969 995.378906 401.792969 C 986.1875 400.902344 975.273438 400.765625 960.207031 404.789062 C 958.886719 405.167969 957.460938 405.597656 956.113281 406.058594 C 956.164062 405.894531 956.273438 405.761719 956.273438 405.570312 C 956.273438 399.148438 952.609375 393.886719 948.324219 390.027344 C 944.039062 386.167969 938.539062 383.089844 932.097656 380.527344 C 919.296875 375.453125 904.257812 372.511719 893.046875 365.496094 C 881.835938 358.480469 871.917969 345.984375 865.476562 335.082031 C 859.0625 324.207031 856.90625 315.839844 857.578125 311.738281 C 857.957031 309.417969 858.683594 307.851562 859.789062 306.878906 C 860.839844 305.960938 862.457031 305.261719 865.449219 305.234375 Z M 277.707031 365.953125 L 311.824219 377.074219 L 264.230469 523.070312 L 230.273438 511.898438 Z M 1195.917969 365.953125 L 1243.351562 511.898438 L 1209.394531 523.070312 L 1161.800781 377.074219 Z M 1195.917969 365.953125 " fill-opacity="1" fill-rule="nonzero"/></g><g clip-path="url(#4e30b6737c)"><g clip-path="url(#e5c70223c6)"><path fill="#ffffff" d="M 605.917969 81 L 857.09375 81 L 857.09375 324.566406 L 605.917969 324.566406 Z M 605.917969 81 " fill-opacity="1" fill-rule="nonzero"/></g></g></svg>